<?xml version="1.0" encoding="iso-8859-1"?>
<!-- Generator: Adobe Illustrator 17.1.0, SVG Export Plug-In . SVG Version: 6.00 Build 0)  -->
<!DOCTYPE svg PUBLIC "-//W3C//DTD SVG 1.1//EN" "http://www.w3.org/Graphics/SVG/1.1/DTD/svg11.dtd">
<svg version="1.1" id="Capa_1" xmlns="http://www.w3.org/2000/svg" xmlns:xlink="http://www.w3.org/1999/xlink" x="0px" y="0px"
	 viewBox="0 0 473.009 473.009" style="enable-background:new 0 0 473.009 473.009;" xml:space="preserve">
<path d="M410.677,71.562c-0.56-1.909-1.855-3.517-3.6-4.471l-99.981-54.635c-0.002-0.001-0.003-0.002-0.005-0.003
	s-0.004-0.002-0.006-0.003l-14.249-7.786C287.254,1.613,280.958,0,274.629,0c-3.055,0-6.05,0.385-8.944,1.085
	c-0.196,0.039-0.391,0.086-0.586,0.141c-10.049,2.597-18.756,9.221-23.866,18.574l-19.892,36.432H69.528
	c-2.054,0-4.019,0.843-5.434,2.331c-1.416,1.489-2.159,3.493-2.057,5.544l14.393,287.87c-0.154,0.664-0.226,1.358-0.19,2.073
	l2.288,45.744c0.086,1.722,0.277,3.413,0.547,5.077l3.051,61.013c0.2,3.992,3.494,7.125,7.491,7.125h200.889
	c3.997,0,7.291-3.134,7.491-7.125l3.051-61.014c0.27-1.664,0.461-3.355,0.547-5.077l2.287-45.744
	c0.036-0.714-0.036-1.407-0.19-2.071l14.222-284.442l68.472,37.417c3.636,1.987,8.192,0.649,10.178-2.985l13.498-24.7
	C411.016,75.523,411.237,73.47,410.677,71.562z M293.316,22.019l-6.304,11.537l-3.518-1.923c-0.066-0.036-0.137-0.061-0.204-0.095
	l-5.801-16.356c2.842,0.362,5.618,1.258,8.155,2.644L293.316,22.019z M262.691,18.332l6.277,17.698l-1.9,3.479l-15.024-8.21
	l2.353-4.309C256.383,23.354,259.27,20.401,262.691,18.332z M244.855,44.464l15.024,8.21l-1.942,3.557h-19.507L244.855,44.464z
	 M249.747,71.231l-141.348,258.88l-15.024-8.21L230.241,71.231H249.747z M213.151,71.231L88.8,298.98L77.413,71.231H213.151z
	 M96.751,458.009l-1.251-25.013c7.794,6.246,17.679,9.97,28.413,9.97h92.827c4.142,0,7.5-3.358,7.5-7.5s-3.358-7.5-7.5-7.5h-92.827
	c-14.813,0-27.22-10.572-29.902-24.738l-3.284-65.679l17.062,9.324c1.113,0.608,2.351,0.918,3.597,0.918
	c0.708,0,1.419-0.101,2.111-0.304c1.909-0.56,3.518-1.856,4.471-3.602L266.838,71.231h35.873l-16.6,331.995
	c-2.681,14.166-15.089,24.739-29.902,24.739c-4.142,0-7.5,3.358-7.5,7.5s3.358,7.5,7.5,7.5c10.734,0,20.62-3.724,28.413-9.97
	l-1.251,25.013H96.751z M275.028,56.231l5.101-9.343l6.265,3.424c0.002,0.001,0.004,0.003,0.006,0.004
	c0.002,0.001,0.003,0.001,0.005,0.002l10.822,5.914H275.028z M386.998,88.194l-86.823-47.445l6.304-11.537l86.824,47.445
	L386.998,88.194z M258.908,344.601l1.004-20.088c0.207-4.137,3.723-7.325,7.865-7.116c4.137,0.207,7.323,3.729,7.116,7.865
	l-1.004,20.088c-0.201,4.009-3.515,7.125-7.484,7.125c-0.126,0-0.253-0.003-0.381-0.009
	C261.887,352.259,258.702,348.738,258.908,344.601z M262.924,284.376l8.035-180.799c0.184-4.139,3.709-7.346,7.826-7.16
	c4.138,0.184,7.343,3.688,7.16,7.826l-8.035,180.799c-0.179,4.024-3.498,7.167-7.487,7.167c-0.113,0-0.226-0.002-0.339-0.007
	C265.946,292.018,262.741,288.514,262.924,284.376z"/>
<g>
</g>
<g>
</g>
<g>
</g>
<g>
</g>
<g>
</g>
<g>
</g>
<g>
</g>
<g>
</g>
<g>
</g>
<g>
</g>
<g>
</g>
<g>
</g>
<g>
</g>
<g>
</g>
<g>
</g>
</svg>
